<?xml version="1.0" encoding="UTF-8"?><svg xmlns="http://www.w3.org/2000/svg" xlink="http://www.w3.org/1999/xlink" width="40pt" height="40pt" viewBox="0 0 40 40" version="1.1">
<g id="surface1">
<path style="stroke: none; fill-rule: evenodd; fill: #5C5C5C; fill-opacity: 1;" d="M 21.453125 23.0625 L 17.988281 19.597656 L 14.519531 26.53125 Z M 23.304688 23.207031 L 28.761719 12.296875 L 17.851562 17.753906 L 12.394531 28.660156 Z M 19.164062 5.722656 C 10.21875 6.023438 3.296875 16.472656 6.855469 24.765625 C 9.355469 31.703125 17.898438 36.027344 24.824219 33.25 C 31.351562 31.015625 35.8125 23.59375 34 16.785156 C 32.59375 10.304688 26.296875 5.1875 19.578125 5.714844 L 19.328125 5.722656 Z M 38.335938 19.855469 C 38.335938 29.890625 30.203125 38.023438 20.167969 38.023438 C 10.136719 38.023438 2 29.890625 2 19.855469 C 2 9.824219 10.136719 1.6875 20.167969 1.6875 C 30.203125 1.6875 38.335938 9.824219 38.335938 19.855469 Z M 38.335938 19.855469 "/>
</g>
</svg>
