<?xml version="1.0" encoding="UTF-8"?><svg xmlns="http://www.w3.org/2000/svg" xlink="http://www.w3.org/1999/xlink" width="40pt" height="40pt" viewBox="0 0 40 40" version="1.1">
<g id="surface13">
<rect x="0" y="0" width="40" height="40" style="fill: transparent; fill-opacity: 1; stroke: none;"/>
<path style="stroke: none; fill-rule: nonzero; fill: #5C5C5C; fill-opacity: 1;" d="M 31.917969 21.214844 C 31.148438 21.214844 30.527344 20.589844 30.527344 19.820312 C 30.527344 19.054688 31.148438 18.429688 31.917969 18.429688 C 32.6875 18.429688 33.308594 19.054688 33.308594 19.820312 C 33.308594 20.589844 32.6875 21.214844 31.917969 21.214844 M 29.113281 18.445312 C 28.34375 18.445312 27.71875 17.824219 27.71875 17.054688 C 27.71875 16.285156 28.34375 15.664062 29.113281 15.664062 C 29.878906 15.664062 30.503906 16.285156 30.503906 17.054688 C 30.503906 17.824219 29.878906 18.445312 29.113281 18.445312 M 29.113281 23.980469 C 28.34375 23.980469 27.71875 23.359375 27.71875 22.589844 C 27.71875 21.820312 28.34375 21.195312 29.113281 21.195312 C 29.878906 21.195312 30.503906 21.820312 30.503906 22.589844 C 30.503906 23.359375 29.878906 23.980469 29.113281 23.980469 M 26.386719 21.214844 C 25.617188 21.214844 24.992188 20.589844 24.992188 19.820312 C 24.992188 19.054688 25.617188 18.429688 26.386719 18.429688 C 27.152344 18.429688 27.777344 19.054688 27.777344 19.820312 C 27.777344 20.589844 27.152344 21.214844 26.386719 21.214844 M 14.375 19.929688 C 14.375 20.664062 13.773438 21.265625 13.039062 21.265625 L 11.777344 21.265625 L 11.777344 22.527344 C 11.777344 23.261719 11.175781 23.863281 10.441406 23.863281 L 10.226562 23.863281 C 9.492188 23.863281 8.890625 23.261719 8.890625 22.527344 L 8.890625 21.265625 L 7.628906 21.265625 C 6.894531 21.265625 6.292969 20.664062 6.292969 19.929688 L 6.292969 19.714844 C 6.292969 18.980469 6.894531 18.378906 7.628906 18.378906 L 8.890625 18.378906 L 8.890625 17.117188 C 8.890625 16.382812 9.492188 15.78125 10.226562 15.78125 L 10.441406 15.78125 C 11.175781 15.78125 11.777344 16.382812 11.777344 17.117188 L 11.777344 18.378906 L 13.039062 18.378906 C 13.773438 18.378906 14.375 18.980469 14.375 19.714844 Z M 29.0625 11.933594 L 10.9375 11.933594 C 6.457031 11.933594 2.828125 15.542969 2.828125 20 C 2.828125 24.457031 6.457031 28.066406 10.9375 28.066406 C 13.863281 28.066406 16.425781 26.523438 17.851562 24.214844 L 22.148438 24.214844 C 23.574219 26.523438 26.136719 28.066406 29.0625 28.066406 C 33.542969 28.066406 37.171875 24.457031 37.171875 20 C 37.171875 15.542969 33.542969 11.933594 29.0625 11.933594 "/>
</g>
</svg>
