<?xml version="1.0" encoding="UTF-8"?><svg xmlns="http://www.w3.org/2000/svg" xlink="http://www.w3.org/1999/xlink" width="12pt" height="12pt" viewBox="0 0 12 12" version="1.1">
<g id="surface9">
<path style="stroke: none; fill-rule: nonzero; fill: #d3ebfa; fill-opacity: 1;" d="M 12.054688 6.027344 C 12.054688 2.679688 9.347656 0 6.027344 0 C 2.679688 0 0 2.707031 0 6.027344 C 0 8.679688 1.703125 10.941406 4.074219 11.722656 C 4.214844 11.609375 4.382812 11.496094 4.382812 11.273438 C 4.382812 10.941406 4.382812 10.101562 4.382812 10.101562 C 4.382812 10.101562 4.101562 10.15625 3.738281 10.15625 C 2.789062 10.15625 2.484375 9.542969 2.34375 9.210938 C 2.148438 8.761719 1.925781 8.566406 1.675781 8.398438 C 1.507812 8.316406 1.480469 8.175781 1.675781 8.148438 C 2.511719 7.980469 2.734375 9.097656 3.292969 9.265625 C 3.683594 9.40625 4.214844 9.320312 4.464844 9.179688 C 4.492188 8.847656 4.746094 8.566406 4.941406 8.398438 C 3.515625 8.261719 2.679688 7.785156 2.261719 7.003906 L 2.203125 6.921875 L 2.09375 6.667969 L 2.066406 6.585938 C 1.925781 6.195312 1.871094 5.722656 1.871094 5.21875 C 1.871094 4.296875 2.148438 3.960938 2.539062 3.488281 C 2.261719 2.457031 2.652344 1.730469 2.652344 1.730469 C 2.652344 1.730469 3.265625 1.589844 4.410156 2.429688 C 5.050781 2.148438 6.699219 2.148438 7.507812 2.371094 C 7.980469 2.039062 8.875 1.589844 9.238281 1.730469 C 9.320312 1.898438 9.542969 2.34375 9.375 3.347656 C 9.515625 3.570312 10.128906 4.019531 10.128906 5.359375 C 10.128906 5.832031 10.074219 6.25 9.960938 6.613281 L 9.90625 6.78125 C 9.90625 6.78125 9.878906 6.863281 9.851562 6.949219 L 9.824219 7.03125 C 9.40625 7.953125 8.539062 8.289062 7.144531 8.429688 C 7.589844 8.707031 7.730469 9.070312 7.730469 10.019531 C 7.730469 10.96875 7.730469 11.105469 7.730469 11.332031 C 7.730469 11.527344 7.898438 11.664062 8.039062 11.777344 C 10.351562 10.941406 12.054688 8.679688 12.054688 6.027344 "/>
</g>
</svg>
