<?xml version="1.0" encoding="UTF-8"?><svg xmlns="http://www.w3.org/2000/svg" xlink="http://www.w3.org/1999/xlink" width="40pt" height="40pt" viewBox="0 0 40 40" version="1.1">
<g id="surface21">
<path style="stroke: none; fill-rule: nonzero; fill: #5C5C5C; fill-opacity: 1;" d="M 37.140625 2.855469 L 2.855469 2.855469 C 1.277344 2.855469 0 4.132812 0 5.710938 L 0 34.285156 C 0 35.863281 1.277344 37.144531 2.855469 37.144531 L 37.140625 37.144531 C 38.714844 37.144531 40 35.863281 40 34.285156 L 40 5.710938 C 40 4.132812 38.714844 2.855469 37.140625 2.855469 Z M 9.285156 5 C 10.074219 5 10.714844 5.636719 10.714844 6.429688 C 10.714844 7.21875 10.074219 7.855469 9.285156 7.855469 C 8.492188 7.855469 7.855469 7.21875 7.855469 6.429688 C 7.855469 5.636719 8.492188 5 9.285156 5 Z M 5 5 C 5.789062 5 6.425781 5.636719 6.425781 6.429688 C 6.425781 7.21875 5.789062 7.855469 5 7.855469 C 4.207031 7.855469 3.570312 7.21875 3.570312 6.429688 C 3.570312 5.636719 4.207031 5 5 5 Z M 37.140625 34.289062 L 2.855469 34.289062 L 2.855469 10.03125 L 37.140625 10.03125 C 37.140625 10.03125 37.140625 34.289062 37.140625 34.289062 Z M 37.140625 34.289062 "/>
<path style="stroke: none; fill-rule: nonzero; fill: #5C5C5C; fill-opacity: 1;" d="M 16.011719 15.902344 L 6.839844 11.707031 L 6.839844 13.726562 L 13.933594 16.761719 L 13.933594 16.800781 L 6.839844 19.832031 L 6.839844 21.851562 L 16.011719 17.65625 Z M 16.011719 15.902344 "/>
<path style="stroke: none; fill-rule: nonzero; fill: #5C5C5C; fill-opacity: 1;" d="M 20.332031 15.816406 L 25.332031 15.816406 L 25.332031 17.742188 L 20.332031 17.742188 Z M 20.332031 15.816406 "/>
</g>
</svg>
