<?xml version="1.0" encoding="UTF-8"?><svg width="97" height="84" viewBox="0 0 97 84" xmlns="http://www.w3.org/2000/svg" xmlns:xlink="http://www.w3.org/1999/xlink"><svg width="13" height="13" viewBox="-1 -1 13 13" id="circle" x="84" xmlns="http://www.w3.org/2000/svg"><path d="M11 5.5C11 8.54 8.54 11 5.5 11S0 8.54 0 5.5 2.46 0 5.5 0 11 2.46 11 5.5zm0 0" fill="#5c5c5c"/></svg><svg width="42" height="42" viewBox="-1 -1 42 42" id="compass" xmlns="http://www.w3.org/2000/svg"><path d="M21.453 23.063l-3.465-3.465-3.468 6.933zm1.852.144l5.457-10.91-10.91 5.457-5.457 10.906zm-4.14-17.484c-8.946.3-15.868 10.75-12.31 19.043 2.5 6.937 11.043 11.261 17.97 8.484 6.527-2.234 10.988-9.656 9.175-16.465-1.406-6.48-7.703-11.598-14.422-11.07l-.25.008zm19.17 14.132c0 10.036-8.132 18.168-18.167 18.168C10.137 38.023 2 29.891 2 19.855 2 9.825 10.137 1.687 20.168 1.687c10.035 0 18.168 8.137 18.168 18.168zm0 0" fill-rule="evenodd" fill="#5c5c5c"/></svg><svg width="42" height="42" viewBox="-1 -1 42 42" id="game-controller" x="42" xmlns="http://www.w3.org/2000/svg"><path fill="transparent" d="M0 0h40v40H0z"/><path d="M31.918 21.215a1.392 1.392 0 0 1 0-2.785 1.392 1.392 0 1 1 0 2.785m-2.805-2.77c-.77 0-1.394-.62-1.394-1.39a1.392 1.392 0 0 1 2.785 0c0 .77-.625 1.39-1.39 1.39m0 5.535a1.392 1.392 0 1 1-.006-2.784 1.392 1.392 0 0 1 .005 2.784m-2.726-2.765c-.77 0-1.395-.625-1.395-1.395a1.394 1.394 0 1 1 1.395 1.395M14.375 19.93a1.34 1.34 0 0 1-1.336 1.336h-1.262v1.261a1.34 1.34 0 0 1-1.336 1.336h-.214a1.34 1.34 0 0 1-1.336-1.336v-1.261H7.629a1.34 1.34 0 0 1-1.336-1.336v-.215a1.34 1.34 0 0 1 1.336-1.336H8.89v-1.262a1.34 1.34 0 0 1 1.336-1.336h.214a1.34 1.34 0 0 1 1.336 1.336v1.262h1.262a1.34 1.34 0 0 1 1.336 1.336zm14.688-7.996H10.938c-4.481 0-8.11 3.609-8.11 8.066 0 4.457 3.629 8.066 8.11 8.066a8.114 8.114 0 0 0 6.914-3.851h4.296a8.114 8.114 0 0 0 6.915 3.851c4.48 0 8.109-3.609 8.109-8.066 0-4.457-3.629-8.066-8.11-8.066" fill="#5c5c5c"/></svg><svg width="42" height="42" viewBox="-1 -1 42 42" id="saddle" y="42" xmlns="http://www.w3.org/2000/svg"><path d="M9.723 30.016a.325.325 0 0 0 .172-.047c6.714-4.121 12.988-6.946 25.91-6.758 1.879.027 3.195-1.64 3.195-3.219 0-1.578-1.316-3.246-3.195-3.219-12.922.188-19.196-2.636-25.91-6.753a.296.296 0 0 0-.172-.051H7.785a7.84 7.84 0 0 0-6.57 5.93c2.207.581 3.781 1.03 4.797 1.546.629.32 1.039.653 1.297 1.043.253.387.375.864.375 1.504s-.122 1.113-.375 1.504c-.258.39-.668.723-1.297 1.04-1.016.515-2.59.968-4.797 1.546a7.84 7.84 0 0 0 6.613 5.934zm-8.633-6.57c2.18-.575 3.726-1.028 4.629-1.485.57-.29.87-.55 1.047-.816.18-.274.273-.59.273-1.153 0-.562-.094-.875-.273-1.148-.176-.27-.477-.532-1.047-.82-.903-.458-2.45-.907-4.63-1.485-.058.387-.089.785-.089 1.191 0 .145.098.274.242.313 1.457.379 2.434.629 2.988.91.274.14.438.277.54.43.097.152.148.332.148.61 0 .277-.05.46-.148.609-.102.152-.266.289-.54.43-.554.28-1.53.534-2.988.91a.326.326 0 0 0-.242.316c0 .402.031.8.09 1.187zM22.8 20.8c-5.413 0-9.8-.363-9.8-.809 0-.445 4.387-.808 9.8-.808 5.415 0 9.802.363 9.802.808 0 .445-4.387.809-9.801.809zm0 0" fill-rule="evenodd" fill="#5c5c5c"/></svg><svg width="42" height="42" viewBox="-1 -1 42 42" id="terminal" x="42" y="42" xmlns="http://www.w3.org/2000/svg"><g fill="#5c5c5c"><path d="M37.14 2.855H2.856A2.854 2.854 0 0 0 0 5.711v28.574a2.857 2.857 0 0 0 2.855 2.86h34.286A2.863 2.863 0 0 0 40 34.285V5.711a2.86 2.86 0 0 0-2.86-2.856zM9.286 5a1.428 1.428 0 1 1 0 2.855c-.793 0-1.43-.636-1.43-1.425 0-.793.637-1.43 1.43-1.43zM5 5c.79 0 1.426.637 1.426 1.43 0 .789-.637 1.425-1.426 1.425-.793 0-1.43-.636-1.43-1.425C3.57 5.637 4.207 5 5 5zm32.14 29.29H2.856V10.03h34.286V34.29zm0 0"/><path d="M16.012 15.902L6.84 11.707v2.02l7.094 3.035v.039L6.84 19.832v2.02l9.172-4.196zm0 0M20.332 15.816h5v1.926h-5zm0 0"/></g></svg></svg>