<?xml version="1.0" encoding="UTF-8"?><svg xmlns="http://www.w3.org/2000/svg" xlink="http://www.w3.org/1999/xlink" width="40pt" height="40pt" viewBox="0 0 40 40" version="1.1">
<g id="surface17">
<path style="stroke: none; fill-rule: evenodd; fill: #5C5C5C; fill-opacity: 1;" d="M 9.722656 30.015625 C 9.785156 30.015625 9.84375 30 9.894531 29.96875 C 16.609375 25.847656 22.882812 23.023438 35.804688 23.210938 C 37.683594 23.238281 39 21.570312 39 19.992188 C 39 18.414062 37.683594 16.746094 35.804688 16.773438 C 22.882812 16.960938 16.609375 14.136719 9.894531 10.019531 C 9.84375 9.984375 9.785156 9.96875 9.722656 9.96875 L 7.828125 9.96875 C 7.8125 9.96875 7.800781 9.96875 7.785156 9.96875 C 4.5625 10.398438 1.960938 12.789062 1.214844 15.898438 C 3.421875 16.480469 4.996094 16.929688 6.011719 17.445312 C 6.640625 17.765625 7.050781 18.097656 7.308594 18.488281 C 7.5625 18.875 7.683594 19.351562 7.683594 19.992188 C 7.683594 20.632812 7.5625 21.105469 7.308594 21.496094 C 7.050781 21.886719 6.640625 22.21875 6.011719 22.535156 C 4.996094 23.050781 3.421875 23.503906 1.214844 24.082031 C 1.960938 27.191406 4.5625 29.582031 7.785156 30.011719 C 7.800781 30.015625 7.8125 30.015625 7.828125 30.015625 Z M 1.089844 23.445312 C 3.269531 22.871094 4.816406 22.417969 5.71875 21.960938 C 6.289062 21.671875 6.589844 21.410156 6.765625 21.144531 C 6.945312 20.871094 7.039062 20.554688 7.039062 19.992188 C 7.039062 19.429688 6.945312 19.117188 6.765625 18.84375 C 6.589844 18.574219 6.289062 18.3125 5.71875 18.023438 C 4.816406 17.566406 3.269531 17.117188 1.089844 16.539062 C 1.03125 16.925781 1 17.324219 1 17.730469 C 1 17.875 1.097656 18.003906 1.242188 18.042969 C 2.699219 18.421875 3.675781 18.671875 4.230469 18.953125 C 4.503906 19.09375 4.667969 19.230469 4.769531 19.382812 C 4.867188 19.535156 4.917969 19.714844 4.917969 19.992188 C 4.917969 20.269531 4.867188 20.453125 4.769531 20.601562 C 4.667969 20.753906 4.503906 20.890625 4.230469 21.03125 C 3.675781 21.3125 2.699219 21.566406 1.242188 21.941406 C 1.097656 21.980469 1 22.109375 1 22.257812 C 1 22.660156 1.03125 23.058594 1.089844 23.445312 Z M 22.800781 20.800781 C 17.386719 20.800781 13 20.4375 13 19.992188 C 13 19.546875 17.386719 19.183594 22.800781 19.183594 C 28.214844 19.183594 32.601562 19.546875 32.601562 19.992188 C 32.601562 20.4375 28.214844 20.800781 22.800781 20.800781 Z M 22.800781 20.800781 "/>
</g>
</svg>
